<svg xmlns="http://www.w3.org/2000/svg" width="64" height="64" viewBox="0 0 16.933 16.933" fill="currentColor">
  <g transform="translate(-167.283 -477.151) scale(1.11244)">
    <path d="M155.404 437.453l-.242-.451a.33.33 0 0 0-.291-.175h-2.794a.33.33 0 0 0-.291.487l1.876 3.5a7.42 7.588 0 0 1 .123-.49 7.42 7.588 0 0 1 .254-.712 7.42 7.588 0 0 1 .322-.683 7.42 7.588 0 0 1 .388-.647 7.42 7.588 0 0 1 .449-.603 7.42 7.588 0 0 1 .206-.226z"/>
    <path d="M155.404 437.453a7.42 7.588 0 0 0-.206.226 7.42 7.588 0 0 0-.449.603 7.42 7.588 0 0 0-.388.647 7.42 7.588 0 0 0-.322.683 7.42 7.588 0 0 0-.254.712 7.42 7.588 0 0 0-.123.49l.752 1.404c.058.107.17.174.292.174h2.794a.33.33 0 0 0 .291-.486z"/>
    <path d="M162.095 435.09a7.42 7.588 0 0 0-.48-.073 7.42 7.588 0 0 0-.741-.038 7.42 7.588 0 0 0-.525.019 7.42 7.588 0 0 0-.736.091 7.42 7.588 0 0 0-.724.166 7.42 7.588 0 0 0-.52.177l-1.546 2.904a.33.33 0 0 0 0 .312l1.403 2.616a.33.33 0 0 0 .583-.001z"/>
    <path d="M161.098 430.675a.331.331 0 0 0-.292.176l-2.438 4.581a7.42 7.588 0 0 1 .52-.177 7.42 7.588 0 0 1 .725-.166 7.42 7.588 0 0 1 .736-.091 7.42 7.588 0 0 1 .525-.02 7.42 7.588 0 0 1 .74.039 7.42 7.588 0 0 1 .48.074l2.092-3.93a.331.331 0 0 0-.292-.486z"/>
  </g>
</svg>
