<?xml version="1.0" encoding="utf-8"?>
<!-- Generator: Adobe Illustrator 16.0.0, SVG Export Plug-In . SVG Version: 6.00 Build 0)  -->
<!DOCTYPE svg PUBLIC "-//W3C//DTD SVG 1.1//EN" "http://www.w3.org/Graphics/SVG/1.1/DTD/svg11.dtd">
<svg version="1.1" id="Layer_1" xmlns="http://www.w3.org/2000/svg" xmlns:xlink="http://www.w3.org/1999/xlink" x="0px" y="0px"
	 width="694.893px" height="280px" viewBox="0 0 694.893 280" enable-background="new 0 0 694.893 280" xml:space="preserve">
<g>
	<path fill="#096AB4" d="M105.55,231.372H65.672L20.898,71.397h37.545c9.328,34.98,18.889,69.96,28.217,104.707h1.166
		c9.561-34.747,18.889-69.727,28.45-104.707h36.146c9.328,34.98,18.889,69.96,28.217,104.707h1.166
		c9.328-34.747,18.889-69.727,28.217-104.707h34.047l-45.007,159.975h-39.411l-26.118-96.079h-1.399L105.55,231.372z"/>
	<path fill="#096AB4" d="M376.986,233.005c-13.759,0-26.818-5.598-26.818-25.419c0-23.32-4.197-42.442-24.952-42.442h-27.052v66.229
		h-35.446V71.397h71.593c26.352,0,53.869,9.328,53.869,39.644c0,17.023-12.359,34.747-28.684,37.778v1.166
		c11.427,3.731,25.652,16.324,25.652,42.676c0,10.261,1.399,26.118,11.893,29.383v7.929
		C391.678,232.071,383.749,233.005,376.986,233.005z M351.801,119.436v-1.632c0-10.028-7.696-17.723-18.656-17.723h-34.98v36.846
		h34.98C343.405,136.926,351.801,129.23,351.801,119.436z"/>
</g>
<rect x="428.893" y="61" fill="none" stroke="#000000" stroke-width="20" stroke-miterlimit="10" width="180" height="179"/>
<g>
	<g>
		<path fill="#157130" d="M656.973,32.411c-16.398,11.107-31.5,24.464-45.949,37.939c-34.89,32.538-65.894,69.103-91.143,109.631
			c4.532,1.329,9.064,2.658,13.597,3.987c-16.296-32.157-35.782-62.935-55.661-92.987c-6.567-9.928-13.824,3.226-15.352,9.148
			c-2.858,11.09-2.463,25.08,4.025,34.889c6.614,9.998,13.043,20.121,19.396,30.286c5.831,9.329,11.553,18.727,17.131,28.208
			c1.432,2.434,2.847,4.876,4.254,7.323c2.36,4.105-1.828-3.236,0.48,0.851c0.674,1.191,1.339,2.388,2.005,3.584
			c2.71,4.87,5.334,9.789,7.854,14.761c2.587,5.105,8.914,11.503,13.597,3.987c13.498-21.667,28.638-42.236,45.152-61.697
			c7.061-8.319,14.405-16.396,21.949-24.277c3.443-3.598,6.948-7.137,10.487-10.64c0.923-0.913,1.852-1.819,2.78-2.726
			c0.265-0.258,3.321-3.204,0.965-0.945c1.761-1.687,3.538-3.356,5.321-5.02c14.156-13.202,29.013-26.245,45.075-37.125
			c8.851-5.995,8.95-22.167,7.837-31.368C670.203,45.503,665.902,26.362,656.973,32.411L656.973,32.411z"/>
	</g>
</g>
</svg>
