<?xml version="1.0" encoding="utf-8"?>
<!-- Generator: Adobe Illustrator 16.0.0, SVG Export Plug-In . SVG Version: 6.00 Build 0)  -->
<!DOCTYPE svg PUBLIC "-//W3C//DTD SVG 1.1//EN" "http://www.w3.org/Graphics/SVG/1.1/DTD/svg11.dtd">
<svg version="1.1" id="Layer_1" xmlns="http://www.w3.org/2000/svg" xmlns:xlink="http://www.w3.org/1999/xlink" x="0px" y="0px"
	 width="694.893px" height="280px" viewBox="0 0 694.893 280" enable-background="new 0 0 694.893 280" xml:space="preserve">
<text transform="matrix(1 0 0 1 19.2656 231.3721)" fill="#096AB4" font-family="'Chivo-Bold'" font-size="233.1954">WR</text>
<rect x="428.893" y="61" fill="none" stroke="#000000" stroke-width="20" stroke-miterlimit="10" width="180" height="179"/>
<g>
	<g>
		<path fill="#157130" d="M656.973,32.411c-16.398,11.107-31.5,24.464-45.949,37.939c-34.89,32.538-65.894,69.103-91.143,109.631
			c4.532,1.329,9.064,2.658,13.597,3.987c-16.296-32.157-35.782-62.935-55.661-92.987c-6.567-9.928-13.824,3.226-15.352,9.148
			c-2.858,11.09-2.463,25.08,4.025,34.889c6.614,9.998,13.043,20.121,19.396,30.286c5.831,9.329,11.553,18.727,17.131,28.208
			c1.432,2.434,2.847,4.876,4.254,7.323c2.36,4.105-1.828-3.236,0.48,0.851c0.674,1.191,1.339,2.388,2.005,3.584
			c2.71,4.87,5.334,9.789,7.854,14.761c2.587,5.105,8.914,11.503,13.597,3.987c13.498-21.667,28.638-42.236,45.152-61.697
			c7.061-8.319,14.405-16.396,21.949-24.277c3.443-3.598,6.948-7.137,10.487-10.64c0.923-0.913,1.852-1.819,2.78-2.726
			c0.265-0.258,3.321-3.204,0.965-0.945c1.761-1.687,3.538-3.356,5.321-5.02c14.156-13.202,29.013-26.245,45.075-37.125
			c8.851-5.995,8.95-22.167,7.837-31.368C670.203,45.503,665.902,26.362,656.973,32.411L656.973,32.411z"/>
	</g>
</g>
</svg>
