<svg width="325" height="111" viewBox="0 0 325 111" fill="none" xmlns="http://www.w3.org/2000/svg">
<path d="M49.3655 91.7225H30.7146L9.77394 28.3038H27.3337C31.6963 42.1709 36.168 56.038 40.5307 69.8127H41.076C45.5477 56.038 49.9104 42.1709 54.382 28.3038H71.2874C75.6501 42.1709 80.1218 56.038 84.4845 69.8127H85.0298C89.3925 56.038 93.8642 42.1709 98.2268 28.3038H114.151L93.1009 91.7225H74.6684L62.4531 53.634H61.7988L49.3655 91.7225Z" fill="black"/>
<path d="M176.316 92.3699C169.88 92.3699 163.773 90.1506 163.773 82.293C163.773 73.0483 161.81 65.4678 152.103 65.4678H139.451V91.7229H122.873V28.3038H156.357C168.681 28.3038 181.551 32.0017 181.551 44.0198C181.551 50.7682 175.771 57.7945 168.135 58.9961V59.4583C173.48 60.9374 180.133 65.9296 180.133 76.3763C180.133 80.4441 180.787 86.7303 185.695 88.0246V91.1679C183.187 91.9996 179.479 92.3699 176.316 92.3699ZM164.537 47.3478V46.7009C164.537 42.7255 160.937 39.675 155.811 39.675H139.451V54.2818H155.811C160.61 54.2814 164.537 51.2305 164.537 47.3478Z" fill="black"/>
<path d="M284.778 24.1821H200.592V95.1429H284.778V24.1821Z" stroke="black" stroke-width="20" stroke-miterlimit="10"/>
<path d="M307.265 12.8486C299.596 17.2518 292.532 22.5469 285.775 27.8888C269.457 40.7877 254.956 55.2832 243.147 71.3496C245.267 71.8765 247.386 72.4033 249.507 72.9302C241.885 60.1822 232.771 47.9809 223.474 36.0675C220.403 32.1317 217.009 37.3464 216.294 39.694C214.957 44.0904 215.142 49.6364 218.176 53.525C221.27 57.4885 224.277 61.5015 227.248 65.5312C229.975 69.2295 232.651 72.9552 235.26 76.7137C235.93 77.6786 236.592 78.6467 237.25 79.6167C238.353 81.2441 236.395 78.3339 237.474 79.9541C237.789 80.4263 238.1 80.9008 238.412 81.3749C239.679 83.3055 240.907 85.2555 242.085 87.2266C243.295 89.2504 246.254 91.7867 248.444 88.8072C254.757 80.2177 261.838 72.0636 269.562 64.3487C272.864 61.0508 276.299 57.8489 279.827 54.7246C281.438 53.2982 283.077 51.8953 284.732 50.5066C285.164 50.1447 285.598 49.7855 286.032 49.4259C286.156 49.3237 287.586 48.1558 286.484 49.0513C287.307 48.3825 288.138 47.7209 288.972 47.0612C295.593 41.8276 302.542 36.657 310.054 32.3438C314.193 29.9672 314.24 23.5562 313.719 19.9086C313.453 18.0387 311.441 10.4507 307.265 12.8486Z" fill="#FFD200"/>
</svg>
